<?xml version="1.0" encoding="UTF-8"?>
<svg width="1920" height="1080" version="1.1" viewBox="0 0 1920 1080" xmlns="http://www.w3.org/2000/svg">
 <defs>
  <linearGradient id="techGrad" x1="0%" y1="0%" x2="100%" y2="100%">
   <stop offset="0%" style="stop-color:#0A192F;stop-opacity:1" />
   <stop offset="100%" style="stop-color:#112240;stop-opacity:1" />
  </linearGradient>
  <pattern id="circuitPattern" width="60" height="60" patternUnits="userSpaceOnUse">
   <path d="M30,0 L60,30 L30,60 L0,30 Z" fill="none" stroke="rgba(100, 255, 218, 0.05)" stroke-width="1"/>
   <circle cx="30" cy="30" r="5" fill="none" stroke="rgba(100, 255, 218, 0.05)" stroke-width="1"/>
   <path d="M30,0 L30,60 M0,30 L60,30" stroke="rgba(100, 255, 218, 0.03)" stroke-width="1"/>
  </pattern>
  <pattern id="dotsPattern" width="20" height="20" patternUnits="userSpaceOnUse">
   <circle cx="10" cy="10" r="1" fill="rgba(100, 255, 218, 0.05)"/>
  </pattern>
 </defs>
 <rect width="100%" height="100%" fill="url(#techGrad)"/>
 <rect width="100%" height="100%" fill="url(#circuitPattern)"/>
 <rect width="100%" height="100%" fill="url(#dotsPattern)"/>
 <g stroke="rgba(100, 255, 218, 0.02)" stroke-width="1">
  <path d="M0,0 C480,270 960,0 1440,270 1920,540"/>
  <path d="M0,540 C480,270 960,540 1440,270 1920,0"/>
  <path d="M0,1080 C480,810 960,1080 1440,810 1920,540"/>
 </g>
</svg>
